<?xml version="1.0" encoding="UTF-8"?>
<svg id="Capa_2" data-name="Capa 2" xmlns="http://www.w3.org/2000/svg" xmlns:xlink="http://www.w3.org/1999/xlink" viewBox="0 0 719.85 719.85">
  <defs>
    <style>
      .cls-1 {
        fill: #e85b0d;
      }

      .cls-2 {
        fill: #c95507;
      }

      .cls-3 {
        stroke: #484847;
      }

      .cls-3, .cls-4, .cls-5, .cls-6, .cls-7, .cls-8 {
        stroke-miterlimit: 10;
      }

      .cls-3, .cls-9, .cls-6, .cls-8 {
        fill: none;
      }

      .cls-10 {
        fill: #ee761a;
      }

      .cls-11 {
        fill: #f2eeeb;
      }

      .cls-12 {
        fill: #3e3d3c;
      }

      .cls-13 {
        fill: #1a2f51;
      }

      .cls-14 {
        fill: #ef791c;
      }

      .cls-4 {
        stroke: #3c3c3b;
      }

      .cls-4, .cls-15 {
        fill: #2d2b29;
      }

      .cls-4, .cls-5, .cls-6, .cls-7 {
        stroke-width: .25px;
      }

      .cls-16 {
        fill: url(#Degradado_sin_nombre_28);
      }

      .cls-17 {
        fill: #163961;
      }

      .cls-18 {
        fill: #d05315;
      }

      .cls-19 {
        fill: #9b6546;
      }

      .cls-20 {
        fill: #ed6e16;
      }

      .cls-21 {
        fill: #d35715;
      }

      .cls-22 {
        fill: #171a21;
      }

      .cls-23 {
        filter: url(#drop-shadow-5);
      }

      .cls-24 {
        fill: #c85017;
      }

      .cls-25 {
        fill: #c34a17;
      }

      .cls-26 {
        fill: #e05c11;
      }

      .cls-27 {
        fill: #fcf7f1;
      }

      .cls-5 {
        fill: #7a8695;
        stroke: #9c9b9b;
      }

      .cls-28 {
        fill: #e05a11;
      }

      .cls-29 {
        fill: #b07856;
      }

      .cls-30 {
        fill: #f9a560;
      }

      .cls-31 {
        fill: #f9f3ed;
      }

      .cls-32 {
        fill: #d5cdc8;
      }

      .cls-33 {
        fill: #ed6e18;
      }

      .cls-34 {
        fill: #363a3e;
      }

      .cls-35 {
        fill: #152037;
      }

      .cls-36 {
        fill: #7e7f8d;
      }

      .cls-37 {
        fill: #3a3b3f;
      }

      .cls-38 {
        fill: #cb4d16;
      }

      .cls-39 {
        fill: #efeeee;
      }

      .cls-40 {
        fill: #a0694b;
      }

      .cls-41 {
        fill: #a63f17;
      }

      .cls-42 {
        fill: #ef7c1c;
      }

      .cls-6, .cls-7 {
        stroke: #575756;
      }

      .cls-43 {
        filter: url(#AI_DesenfoqueGaussiano_4);
        opacity: .4;
      }

      .cls-44 {
        fill: #ed6c16;
      }

      .cls-45 {
        fill: #e0dddb;
      }

      .cls-46 {
        fill: #ede6e1;
      }

      .cls-47 {
        fill: #282f3a;
      }

      .cls-48 {
        fill: #fefdfe;
      }

      .cls-49 {
        fill: #fefefe;
      }

      .cls-50 {
        fill: #56250f;
      }

      .cls-51 {
        fill: url(#Degradado_sin_nombre_68);
      }

      .cls-7 {
        fill: url(#Degradado_sin_nombre_67);
      }

      .cls-52 {
        fill: #ac3317;
      }

      .cls-8 {
        stroke: #f5f5f5;
      }
    </style>
    <linearGradient id="Degradado_sin_nombre_28" data-name="Degradado sin nombre 28" x1="437.22" y1="590.96" x2="536.75" y2="175.38" gradientUnits="userSpaceOnUse">
      <stop offset="0" stop-color="#fef8f5" stop-opacity="0"/>
      <stop offset=".02" stop-color="#fef5ef" stop-opacity=".11"/>
      <stop offset=".1" stop-color="#feedde" stop-opacity=".49"/>
      <stop offset=".16" stop-color="#fee7d1" stop-opacity=".76"/>
      <stop offset=".2" stop-color="#fee3ca" stop-opacity=".93"/>
      <stop offset=".22" stop-color="#fee2c7"/>
    </linearGradient>
    <filter id="drop-shadow-5" x="119.91" y="369.42" width="318.24" height="178.08" filterUnits="userSpaceOnUse">
      <feOffset dx="-3" dy="6"/>
      <feGaussianBlur result="blur" stdDeviation="3"/>
      <feFlood flood-color="#3f3e3d" flood-opacity=".75"/>
      <feComposite in2="blur" operator="in"/>
      <feComposite in="SourceGraphic"/>
    </filter>
    <linearGradient id="Degradado_sin_nombre_67" data-name="Degradado sin nombre 67" x1="225.02" y1="527.52" x2="253.66" y2="323.29" gradientUnits="userSpaceOnUse">
      <stop offset="0" stop-color="#3a3b3f"/>
      <stop offset=".05" stop-color="#42454b"/>
      <stop offset=".21" stop-color="#5a616b"/>
      <stop offset=".37" stop-color="#6c7582"/>
      <stop offset=".51" stop-color="#768190"/>
      <stop offset=".64" stop-color="#7a8695"/>
    </linearGradient>
    <filter id="AI_DesenfoqueGaussiano_4">
      <feGaussianBlur stdDeviation="4"/>
    </filter>
    <linearGradient id="Degradado_sin_nombre_68" data-name="Degradado sin nombre 68" x1="181.98" y1="502.4" x2="181.98" y2="602.05" gradientUnits="userSpaceOnUse">
      <stop offset="0" stop-color="#3a3b3f"/>
      <stop offset=".25" stop-color="#5f6671" stop-opacity=".71"/>
      <stop offset=".64" stop-color="#7a8695" stop-opacity=".5"/>
    </linearGradient>
  </defs>
  <circle class="cls-16" cx="485.61" cy="388.93" r="213.62"/>
  <line class="cls-6" x1="448.38" y1="518.06" x2="448.38" y2="517.79"/>
  <line class="cls-3" x1="511.21" y1="337.52" x2="513.35" y2="336.21"/>
  <path class="cls-2" d="M541.09,520s-.02.15-.04.35c0,.08-.01.12-.01.12l-10.42-2.41.02-.16,9-74.63s3.73-36.76-33.61-39.08c-18.62-1.13-26.77-1.66-30.28-1.92h-.02c-1.66-.11-2.27-.16-2.45-.2h.15l-2.25-5.41s.29,0,.82-.02c5.67-.09,39.25-.29,54.88,7.55,3.27,1.17,8.58,3.54,13.18,8.38,14.13,14.87,10.27,41.18,6.28,68.37,0,0-3.31,22.56-5.23,39.06Z"/>
  <path class="cls-12" d="M539.63,443.26l-9,74.63c-17.63-3.55-35.26-7.08-52.91-10.63.26-1.33.59-3.44.68-6.05.2-6.36-1.17-11.36-2.27-15.2-.49-1.74-1.26-4.21-2.45-7.11l20.78-10.66,3.75-4.19s2.1-4.21,0-15.18c-1.81-9.47-18.09-38.81-22.48-46.62,3.51.26,11.67.79,30.28,1.92,37.34,2.32,33.61,39.08,33.61,39.08Z"/>
  <path class="cls-9" d="M477.72,507.27c-1.39-.27-2.8-.57-4.19-.84"/>
  <path class="cls-9" d="M530.63,517.89c3.49.69,6.97,1.41,10.46,2.1.79.16,1.59.31,2.38.48"/>
  <path class="cls-41" d="M478.4,501.22c-.09,2.62-.42,4.72-.68,6.05-1.39-.27-2.8-.57-4.19-.84-14.78-2.96-29.52-5.93-44.29-8.89,3.44.26,8.01.37,10.97-2.16,3.31-2.82,2.98-6.97,4.68-5.65,2.72,2.1,10.84-1.63,10.84-1.63l17.94-9.2c1.19,2.91,1.96,5.38,2.45,7.11,1.1,3.84,2.47,8.83,2.27,15.2Z"/>
  <path class="cls-9" d="M473.54,506.43c-.18.66-.37,1.28-.57,1.85"/>
  <path class="cls-9" d="M473.68,478.9c-.04-.09-.05-.2-.09-.29"/>
  <path class="cls-8" d="M360.55,243.24c-14.61,0-26.46,16.86-26.46,37.64s11.85,37.66,26.46,37.66c10.04,0,18.78-7.97,23.26-19.71.02-.04.04-.07.04-.11,1.94-3.97,3.05-8.72,3.05-13.84v-.4c.07-1.19.11-2.38.11-3.58,0-20.78-11.85-37.64-26.46-37.64ZM455.23,239.86c-18.38,0-33.27,17.61-33.27,39.34s14.89,39.34,33.27,39.34,33.27-17.61,33.27-39.34-14.9-39.34-33.27-39.34Z"/>
  <path class="cls-10" d="M515.95,262.74c-7.1-28.18-27.63-51.5-53.49-63.83-.84,2.32-1.7,3.77-2.45,4.06-5.87,2.34-13.06-4.21-13.06-4.21.71-1.74,1.37-3.46,1.98-5.14-9.05-2.78-18.53-4.26-28.13-4.21-5.32.04-10.41.53-15.22,1.39-2.91.51-5.72,1.17-8.45,1.94-32.88,9.22-52.19,34.71-54.79,38.24-18.54,25.33-19.46,52.49-19.6,60.22-.18,9.33-.44,22.4,5.6,35.95,13.88,31.09,52.12,45.06,83.1,47.31,3.2.24,6.35.35,9.36.33,5.03-.04,13.83-.07,24.25-1.92,16.55-2.89,37.2-10.31,53.25-29.37,28.66-33.98,18.75-76.44,17.65-80.78ZM360.55,318.53c-14.61,0-26.46-16.86-26.46-37.66s11.85-37.64,26.46-37.64,26.46,16.86,26.46,37.64c0,1.21-.04,2.4-.11,3.58v.4c0,5.12-1.12,9.88-3.05,13.84,0,.04-.02.07-.04.11-4.48,11.74-13.22,19.71-23.26,19.71ZM432.08,346.44c-5.3,7.52-13.24,11.05-21.32,10.99-.99,0-3.99-.05-7.68-1.13-1.28-.37-7.55-2.08-13.33-8.16-5.27-5.54-7.28-11.72-8.08-15.65-.18-.97.97-1.59,1.68-.93.91.86,2.12,1.9,3.57,2.98h.02c6.62.4,14.7.35,23.83-.86,8.28-1.12,15.45-2.91,21.32-4.79,1.13-1.33,1.99-2.54,2.63-3.51.49-.77,1.66-.53,1.81.38.71,4.19,1.19,12.69-4.44,20.68ZM455.23,318.53c-18.38,0-33.27-17.61-33.27-39.34s14.89-39.34,33.27-39.34,33.27,17.61,33.27,39.34-14.9,39.34-33.27,39.34Z"/>
  <path class="cls-28" d="M455.54,117.15c-.9,3.33-1.79,6.4-2.65,9.24-2.83-8.34-6.11-12.6-6.11-12.6l9.44-2.65c.57,1.33.13,3.09-.68,6.02Z"/>
  <path class="cls-20" d="M462.46,198.91c-.84,2.32-1.7,3.77-2.45,4.06-5.87,2.34-13.06-4.21-13.06-4.21.71-1.74,1.37-3.46,1.98-5.14,11.65-31.66,8.36-54.32,3.97-67.23v-.02c.86-2.83,1.76-5.91,2.65-9.24.8-2.93,1.24-4.68.68-6.02-.07-.18-.16-.37-.27-.53-1.01-1.46-3-1.7-3.75-1.79-8.65-1.1-22.68-4.88-27.74-6.97-4.01-1.65-9.24-5.03-14.12-12.82,1.12-4.32,4.94-6.69,7.19-7.92,4.04-2.18,29.26-.62,44.51,23.66,13.3,21.16,6.35,78.31.42,94.15Z"/>
  <path class="cls-38" d="M372.29,150.74c-1.83-1.26-3.79-2.43-5.89-3.47-8.6-4.28-16.88-5.27-22.79-5.34,1.5-2.6,2.87-5.23,4.17-7.9,1.98-.11,9.71-.33,16.62,5.21,5.19,4.15,7.19,9.34,7.88,11.5Z"/>
  <path class="cls-42" d="M405.58,190.81c-2.91.51-5.72,1.17-8.45,1.94-.55-3.51-4.83-28.29-24.84-42.01-.69-2.16-2.69-7.35-7.88-11.5-6.91-5.54-14.65-5.32-16.62-5.21-1.3,2.67-2.67,5.3-4.17,7.9-3.4,6.04-7.35,11.8-12.02,16.92-6.8,7.44-14.37,12.55-24.84,11.47-9.64-.99-9.95-8.83-6.29-16.37,11.21-23.04,42.96-29.88,42.96-29.88,7.21.91,16.48,3.18,25.88,8.65,29.02,16.9,35.13,50.38,36.27,58.1Z"/>
  <path class="cls-49" d="M387.02,280.88c0,1.21-.04,2.4-.11,3.58-.35,5.12-1.41,9.93-3.05,14.25,0,.04-.02.07-.04.11-4.48,11.74-13.22,19.71-23.26,19.71-14.61,0-26.46-16.86-26.46-37.66s11.85-37.64,26.46-37.64,26.46,16.86,26.46,37.64Z"/>
  <path class="cls-13" d="M386.91,284.46v.4c0,5.12-1.12,9.88-3.05,13.84,0,.04-.02.07-.04.11-3.29,6.75-8.92,11.19-15.29,11.19-10.13,0-18.36-11.27-18.36-25.15s8.23-25.16,18.36-25.16,18.21,11.05,18.38,24.76Z"/>
  <ellipse class="cls-35" cx="371.24" cy="288.59" rx="10.68" ry="11.85"/>
  <ellipse class="cls-48" cx="374.91" cy="273.3" rx="5.6" ry="6.48"/>
  <path class="cls-49" d="M488.5,279.2c0,21.73-14.9,39.34-33.27,39.34s-33.27-17.61-33.27-39.34,14.89-39.34,33.27-39.34,33.27,17.61,33.27,39.34Z"/>
  <ellipse class="cls-13" cx="449.74" cy="284.16" rx="18.79" ry="25.86"/>
  <ellipse class="cls-35" cx="448.44" cy="288.17" rx="9.24" ry="12.28"/>
  <ellipse class="cls-48" cx="457.69" cy="272.85" rx="5.24" ry="6.35"/>
  <path class="cls-50" d="M432.08,346.44c-2.29-.66-8.94-2.21-16.64.62-6.99,2.56-10.9,7.28-12.36,9.24-1.28-.37-7.55-2.08-13.33-8.16-5.27-5.54-7.28-11.72-8.08-15.65-.18-.97.97-1.59,1.68-.93.91.86,2.12,1.9,3.57,2.98h.02c4.86,3.58,12.62,7.48,22.57,6.6,11.12-.97,18.51-7.39,22.59-12.25,1.13-1.33,1.99-2.54,2.63-3.51.49-.77,1.66-.53,1.81.38.71,4.19,1.19,12.69-4.44,20.68Z"/>
  <path class="cls-52" d="M432.08,346.44c-5.3,7.52-13.24,11.05-21.32,10.99-.99,0-3.99-.05-7.68-1.13,1.46-1.96,5.38-6.68,12.36-9.24,7.7-2.83,14.36-1.28,16.64-.62Z"/>
  <path class="cls-31" d="M432.08,328.89c-4.08,4.86-11.47,11.28-22.59,12.25-9.95.88-17.7-3.02-22.57-6.6,6.62.4,14.7.35,23.83-.86,8.28-1.12,15.45-2.91,21.32-4.79Z"/>
  <path class="cls-25" d="M445.04,372.89v14c-2.01,1.47-9.56,6.63-19.87,5.52-6.76-.73-11.56-3.83-13.79-5.52v-12.36c3.21.24,6.36.36,9.38.34,5.04-.04,13.85-.08,24.29-1.97Z"/>
  <path class="cls-21" d="M468.4,432.56c-2.1,9.02-6.57,16.93-12.62,22.73-6.67,6.44-15.29,10.31-24.65,10.31-6.99,0-13.55-2.14-19.2-5.91-9.93-6.58-17.1-18.14-18.96-31.75-.07-.66-.15-1.33-.22-1.99.22.44.44.86.68,1.28,3.44,6.2,8.94,11.36,15.75,14.81,1.54.79,3.13,1.5,4.79,2.08,4.7,1.7,9.88,2.65,15.29,2.65,10.37,0,19.81-3.46,26.88-9.11,1.24-.99,2.4-2.03,3.47-3.15.6-.62,1.19-1.26,1.74-1.92.04-.05.09-.11.13-.16,1.61-1.92,3.02-4.02,4.13-6.24l2.8,6.35Z"/>
  <path class="cls-26" d="M455.54,386.31c-5.58,2.49-13.2,5.14-22.53,6.44-14.8,2.05-27.01-.31-34.42-2.4,1.12-1.17,2.05-1.99,2.65-2.52,3.77-3.29,7.5-5.25,10.13-6.38v5.14c2.23,1.65,7.02,4.66,13.77,5.38,10.3,1.08,17.83-3.95,19.84-5.38v-7.35c3.86,1.7,7.41,4.11,10.55,7.08Z"/>
  <path class="cls-33" d="M458.99,410.89c.84,7.28,1.66,14.52,2.51,21.8-.55.66-1.13,1.3-1.74,1.92-1.08,1.12-2.23,2.16-3.47,3.15-7.08,5.65-16.51,9.11-26.88,9.11-15.76,0-29.41-7.97-35.83-19.55-.24-.42-.46-.84-.68-1.28-2.12-4.22-3.29-8.89-3.29-13.77,0-7.43,2.69-14.32,7.28-19.95.62-.77,1.23-1.43,1.77-2.01,7.41,2.08,19.62,4.44,34.42,2.4,9.33-1.3,16.95-3.95,22.53-6.44,2.72,2.07,5.14,4.46,7.13,7.13-.71.2-1.44.51-2.19.93-.77.44-1.43.91-1.98,1.41-.18.16-.37.33-.51.51-.18.16-.33.35-.46.51-.42.53-.75,1.08-1.01,1.63-.02.04-.02.05-.04.09-.11.26-.22.51-.29.79-.05.16-.11.35-.15.53-.82,3.47.84,6.97,1.55,8.27.04.05.07.13.11.18,0,.04,0,.05.04.07.04.09.09.16.15.24.35.77.68,1.55,1.02,2.32v.02Z"/>
  <path class="cls-24" d="M392.96,427.95c-5.65,8.89-12.09,18.03-19.42,27.23l15.91-43c0,4.88,1.17,9.55,3.29,13.77.07.66.15,1.33.22,1.99Z"/>
  <path class="cls-44" d="M397.5,391.51c-4.59,5.63-7.28,12.53-7.28,19.95l-15.91,43c-1.79,2.23-3.58,4.41-5.38,6.53-11.76,6.77-23.52,13.53-35.28,20.28l-4.7-.79-4.46-15.6h2.65l28.27-17.9c1.85-1.41,34.8-50.2,34.8-50.2,0,0,2.96-4.19,7.28-5.27Z"/>
  <path class="cls-1" d="M456.22,111.13l-9.44,2.65s-21.78,3.44-32.06-10.57c-4.54-6.18-5.3-10.79-4.39-14.19,4.88,7.79,10.11,11.17,14.12,12.82,5.07,2.08,19.09,5.87,27.74,6.97.75.09,2.74.33,3.75,1.79.11.16.2.35.27.53Z"/>
  <path class="cls-41" d="M463.09,461.86c-7.26,3.91-16.82,8.36-27.47,11.52,0,0-14.12-7.06-26.72-7.1,0-.75.13-1.98.69-3.35.7-1.65,1.72-2.71,2.32-3.24,5.65,3.77,12.22,5.91,19.2,5.91,9.36,0,17.98-3.88,24.65-10.31,1.1.57,2.49,1.39,3.9,2.63,1.61,1.39,2.71,2.82,3.42,3.93Z"/>
  <path class="cls-18" d="M465.6,426.2v.02c-1.15,2.27-2.6,4.43-4.26,6.4-.84-7.28-1.66-14.52-2.51-21.8.55,1.24,1.1,2.49,1.65,3.73,1.7,3.9,3.42,7.77,5.12,11.65Z"/>
  <path class="cls-15" d="M375.92,507.96l-36.57,9.91-1.2-4.16-.67-2.36-.55-1.89-.61-2.15-.51-1.77-.49-1.71-.61-2.15-.49-1.67-.79-2.76,42.36,7.92c1.5.28,1.58,2.4.12,2.78Z"/>
  <g class="cls-23">
    <path class="cls-4" d="M352.32,503.31l-3.96.89c-.24.04-.51.04-.77,0l-12.87-2.52-.49-1.67,1.08-.24c.24-.04.51-.04.77,0l15.74,3.07c.55.14.83.41.51.47Z"/>
    <path class="cls-4" d="M360.65,507.62c-.25.06-.52.06-.78,0l-8.83-1.99c-.54-.12-.83-.39-.49-.46l3.94-.88c.25-.06.52-.06.78,0l8.83,1.99c.54.12.83.39.49.46l-3.94.88Z"/>
    <path class="cls-4" d="M345.89,507.91c-.25.06-.52.06-.78,0l-4.5-.97c-.54-.12-.83-.39-.49-.46l3.94-.88c.25-.06.52-.06.78,0l4.5.97c.54.12.83.39.49.46l-3.94.88Z"/>
    <path class="cls-4" d="M352.97,509.93c-.25.06-.52.06-.78,0l-4.5-.97c-.54-.12-.83-.39-.49-.46l3.94-.88c.25-.06.52-.06.78,0l4.5.97c.54.12.83.39.49.46l-3.94.88Z"/>
    <path class="cls-4" d="M342.23,505.02l-3.94.89c-.26.06-.53.06-.79,0l-1.69-.37-.49-1.71,1.14-.24c.24-.06.53-.06.77,0l4.51.97c.53.12.81.39.49.45Z"/>
    <path class="cls-4" d="M342.23,508.72l-3.94.87c-.26.06-.53.06-.79,0l-.57-.12-.61-2.15.14-.04c.24-.06.53-.06.77,0l4.51.97c.53.12.81.39.49.47Z"/>
    <path class="cls-4" d="M345.89,511.7c-.25.06-.52.06-.78,0l-4.5-.97c-.54-.12-.83-.39-.49-.46l3.94-.88c.25-.06.52-.06.78,0l4.5.97c.54.12.83.39.49.46l-3.94.88Z"/>
    <path class="cls-4" d="M342.45,512.8l-3.94.87c-.14.04-.24.04-.37.04l-.67-2.36,4.49.97c.55.12.81.39.49.47Z"/>
    <path class="cls-7" d="M338.07,530.26l-.02.04c-.18.41-.43.75-.75,1.04-.22.22-.49.43-.79.57-.61.32-1.32.45-2.07.35l-158.09-24.77c-1.26-.2-2.29-1.08-2.7-2.27l-41.32-123.99c-.28-.83-.22-1.67.1-2.38l.83-1.18c.49-.47,1.12-.77,1.83-.85.2-.04.41-.06.63-.04l159.04,7.92c1.44.06,2.68,1.06,3.09,2.46l26.7,93.09,8,27.92.1.35,1.02,3.53.22.81,2.92,10.15,1.42,4.98c.02.08.04.16.04.22.18.73.08,1.46-.2,2.07Z"/>
    <path class="cls-5" d="M341.09,525.61v.08c-.08.26-.18.53-.32.77l-.55.77-2.15,3.03c.28-.61.39-1.34.2-2.07,0-.06-.02-.14-.04-.22l-1.42-4.98-2.92-10.15-.22-.81-1.02-3.53-.1-.35-8-27.92-26.7-93.09c-.41-1.4-1.64-2.4-3.09-2.46l-159.04-7.92c-.22-.02-.43,0-.63.04-.71.08-1.34.39-1.83.85l1.97-2.8.93-1.32v-.02c.63-.55,1.46-.87,2.4-.83l159.04,7.94c1.44.06,2.7,1.06,3.09,2.46l28.06,97.86,4.69,16.33.79,2.76.49,1.67.61,2.15.49,1.71.51,1.77.61,2.15.55,1.89.67,2.36,1.2,4.16,1.73,6.03c.18.59.16,1.18.02,1.71Z"/>
    <path class="cls-36" d="M431.84,500.05c-.1.65-.51,1.22-1.3,1.42l-89.47,22.44-1.73-6.03,36.57-9.91c1.46-.39,1.38-2.5-.12-2.78l-42.36-7.92-4.69-16.33,101.66,17.1c1.08.18,1.56,1.14,1.44,2.01Z"/>
    <g>
      <path class="cls-17" d="M242.59,470.3c.76,2.97-.49,5.14-2.79,4.84-2.28-.29-4.72-2.9-5.47-5.82-.75-2.93.46-5.1,2.72-4.85,2.28.25,4.77,2.86,5.53,5.83Z"/>
      <path class="cls-17" d="M232.81,467.95l.63,2.44c.58,2.25-.35,3.89-2.06,3.67l-22.18-2.85-2.59-10.08,22.07,2.42c1.7.19,3.56,2.16,4.13,4.4Z"/>
      <path class="cls-17" d="M233.97,436.79l6.33,24.6-8.17-.85-6.24-24.24c-.11-.44-.47-.81-.8-.83h0c-.33-.02-.5.32-.39.75l3.32,12.88c1.61,6.24-.92,10.9-5.58,10.42h0c-4.57-.47-9.49-5.75-11.04-11.8l-3.22-12.51c-.11-.41-.43-.76-.73-.77h0c-.3-.02-.46.3-.35.71l6.03,23.41-7.39-.77-5.94-23.08c-1.53-5.94.7-10.62,5.04-10.45h0c4.42.17,9.33,5.28,10.91,11.4l3.27,12.69c.11.43.46.8.78.83h0c.32.03.49-.3.38-.73l-3.27-12.7c-1.58-6.15.84-10.99,5.49-10.81h0c4.73.18,9.95,5.48,11.59,11.83Z"/>
      <path class="cls-17" d="M237.8,425.56l13.13,51.01,8.75,1.12-7.13-27.72,8.85.72c5.49.45,8.59-4.76,6.82-11.63h0c-1.77-6.87-7.69-12.62-13.12-12.83l-17.3-.67ZM258.5,439.46l-8.03-.5c-.43-.03-.89-.49-1.03-1.03h0c-.14-.54.09-.96.52-.94l8.02.47c.44.03.92.49,1.06,1.05h0c.14.55-.1.98-.54.95Z"/>
    </g>
    <path class="cls-5" d="M431.87,507.09c0,.53-.35.97-.83,1.1l-88.13,23.66-.3.08c-.26.06-.53.04-.77-.08-.37-.18-.63-.55-.63-1l-.1-5.16v-.08c.14-.53.16-1.12-.02-1.71l89.47-22.44c.79-.2,1.2-.77,1.3-1.42l.02,7.05Z"/>
  </g>
  <line class="cls-6" x1="341.09" y1="525.61" x2="341.07" y2="523.91"/>
  <path class="cls-37" d="M341.83,531.85l-5.32.06c.3-.14.57-.35.79-.57.32-.28.57-.63.75-1.04l.02-.04,2.15-3.03.55-.77c.14-.24.24-.51.32-.77l.1,5.16c0,.45.26.81.63,1Z"/>
  <g>
    <path class="cls-12" d="M477.43,453.08s-5.49,4-14.34,8.78c-.71-1.12-1.81-2.54-3.42-3.93-1.41-1.24-2.8-2.07-3.9-2.63,6.05-5.8,10.52-13.72,12.62-22.73l9.03,20.52Z"/>
    <path class="cls-14" d="M498.21,464.05l-3.75,4.19-20.78,10.66-17.94,9.2s-8.12,3.73-10.84,1.63c-1.7-1.32-1.37,2.83-4.68,5.65-2.96,2.52-7.53,2.41-10.97,2.16-3.88-.27-3.55-1.17-5.83-1.01-.37.04-.69.07-1.04.15h-.02c-.55.09-1.08.24-1.61.42-2.18.77-4.1,2.12-5.78,3.66-1.59,1.46-2.76,3.69-4.81,4.57-1.88.82-4.79.82-6.53-.38-.9-.62-1.44-1.61-1.61-2.67-.05-.37-.09-.73-.11-1.12-4.37,1.06-8.05.95-10.17-1.13-.62-.62-1.1-1.28-1.46-1.96-.93.31-2.47.42-4.37.53-6.53.37-5.87-6.07-5.25-8.94.18-.82.35-1.35.35-1.35,0,0,2.8-10.02,15.87-18.89,3.38-2.3,7.61-3.15,12.03-3.13,12.6.04,26.72,7.1,26.72,7.1,10.64-3.16,20.21-7.61,27.47-11.52,8.85-4.77,14.34-8.78,14.34-8.78l-9.03-20.52-2.8-6.35v-.02c-1.7-3.88-3.42-7.75-5.12-11.65-.48-1.08-.95-2.18-1.43-3.26l-.02-.02v-.02c-.05-.16-.13-.27-.2-.44v-.02c-.35-.77-.68-1.55-1.02-2.32-.05-.07-.11-.15-.15-.24-.04-.02-.04-.04-.04-.07-1.81-2.71-2.34-5.82-1.66-8.45.04-.18.09-.37.15-.53.07-.27.18-.53.29-.79.02-.04.02-.05.04-.09.26-.55.59-1.1,1.01-1.63.15-.18.29-.35.46-.51.16-.18.33-.35.51-.51.55-.49,1.21-.97,1.98-1.41.75-.42,1.48-.73,2.19-.93.04,0,.05-.02.09-.02,4-1.12,7.21,1.1,9.31,3.33,1.68,1.85,2.63,3.69,2.63,3.69,0,0,.4.7,1.1,1.94h.02c4.39,7.81,20.67,37.14,22.48,46.62,2.1,10.97,0,15.18,0,15.18Z"/>
    <path class="cls-44" d="M402,501.22c-1.78-8.33,4.62-16.56,12.28-19.21,0,0,.05.09.05.09-7.16,3.86-12.44,10.96-12.33,19.13h0Z"/>
    <path class="cls-44" d="M390.37,498.15c-4.61-7.56,4.96-17.06,10.58-21.35,1-.69,1.97-1.4,3.04-1.99l.06.08c-5.91,4.88-17.14,14.97-13.68,23.26h0Z"/>
  </g>
  <g>
    <g>
      <path class="cls-34" d="M513.45,337.15c1.12.31,2.25.46,3.4.46h-6.84c-12.47,0-22.57-17.7-22.57-39.54s10.1-39.52,22.57-39.52h6.84c-1.15,0-2.29.15-3.4.46h-.04c-10.83,2.89-19.13,19.28-19.13,39.06s8.3,36.19,19.13,39.08h.04Z"/>
      <path class="cls-39" d="M519.21,334.17c1.3.8,2.67,1.41,4.08,1.79-2.03,1.08-4.21,1.65-6.44,1.65-1.15,0-2.29-.15-3.4-.46h-.04c-10.83-2.89-19.13-19.29-19.13-39.08s8.3-36.17,19.13-39.06h.04c1.12-.31,2.25-.46,3.4-.46,3.69,0,7.17,1.55,10.24,4.32-1.94,0-3.82.4-5.61,1.17-9.75,4.1-16.92,18.51-16.92,35.66,0,15.76,6.09,29.24,14.65,34.47Z"/>
      <path class="cls-11" d="M543.48,300.08c0,15.2-4.65,27.8-10.7,30.03-.62.22-1.26.35-1.92.35-.33,0-.66-.04-.99-.11-1.66-.29-3.24-1.39-4.65-3.11-4.13-4.99-6.97-15.29-6.97-27.16,0-13.24,3.51-24.49,8.41-28.64,1.32-1.12,2.72-1.72,4.19-1.72.66,0,1.3.13,1.92.35.53.2,1.04.48,1.55.82,5.29,3.62,9.14,15.33,9.14,29.19Z"/>
      <path class="cls-45" d="M518.26,300.08c0,11.87,2.83,22.17,6.97,27.16.73.88,2.29,2.82,4.65,3.11,2.79.34,5.23-1.79,5.28-1.7.06.1-2.75,1.74-5.87,3.71-1.38.87-3.72,2.38-3.72,2.38h0l-2.28,1.23c-1.41-.38-2.78-.99-4.08-1.79-8.56-5.23-14.65-18.71-14.65-34.47,0-17.15,7.17-31.57,16.92-35.66,1.79-.77,3.68-1.17,5.61-1.17,1.26,1.12,3.35,2.96,4.47,4.48l2.78,3.55c-.51-.35-1.02-.62-1.55-.82-.62-.22-1.26-.35-1.92-.35-1.46,0-2.87.6-4.19,1.72-4.9,4.15-8.41,15.4-8.41,28.64Z"/>
    </g>
    <g>
      <path class="cls-32" d="M322.67,297.05c-.16,14.76,4.42,25.83,7.07,33.04-9.03-4.35-18-17.19-18-33.1s5.61-30.3,15.16-34.13c-2.87,7.15-4.04,19.1-4.22,34.19Z"/>
      <path class="cls-46" d="M311.96,298.24c.34,5.1,1.49,9.22,1.75,10.12.9,3.13,2.23,6.53,4.22,10.11,3.02,5.44,7.01,9.32,11.74,10.95.05.09-1.14.38-1.1.47-12.03,1.37-21.68-9.79-23.85-28.88-.14-1.25-2.02-27.56,12.02-36.77,4.14-2.72,7.54-3.51,10.7-3.62-.07.31-.17.76-.31,1.3-.31,1.25-.39,1.4-.44,1.48-.46.72-1.35.64-2.2,1.01-1.16.5-1.8,1.2-2.92,2.42-3.74,4.07-5.72,8.32-5.72,8.32-1.83,4.64-4.55,13.18-3.89,23.09Z"/>
      <path class="cls-30" d="M393.79,190.26c-31.49,9.36-57.06,36.01-66.35,70.35-.99,0-1.98.11-2.94.33,1.35-8.07,6.44-31.25,27.25-50.04,15.27-13.77,31.91-18.75,42.04-20.65Z"/>
      <path class="cls-27" d="M527.09,262.86c-3.07-2.76-6.55-4.32-10.24-4.32h-3.58c-15.36-48.37-62.18-77.82-107.46-70.98-4.06.62-8.07,1.5-11.96,2.67-.02,0-.04.02-.05.02-10.13,1.9-26.77,6.88-42.04,20.65-20.81,18.78-25.9,41.97-27.25,50.04-1.79.37-3.53,1.12-5.18,2.16,10.88-44,45.52-77.19,86.8-83.63,51.46-8.03,105.23,26.79,120.98,83.39Z"/>
    </g>
  </g>
  <g>
    <path class="cls-40" d="M418.49,391.32c.15.69.21,1.32-.07,1.73-1.28,1.91-5.72,7.57-7.42,7,1.43,3.37-.42,4.92-3.74,3.74-.96-2.59-2.12-5.85-3.38-9.65-1.61-4.84-1.93-6.21-1.4-7.69,1.31-3.68,6.7-4.8,8.53-5.11l7.49,9.98Z"/>
    <path class="cls-29" d="M448.43,379.67c1.14.89,2.48,1.8,4.01,2.68.85.49,1.67.91,2.45,1.28.41.25,1.05.64,1.87,1.05.92.47,1.1.49,1.17.58.43.61-3.25,4.43-18.48,16.71-4.16,3.64-7.76,5.41-9.19,4.3-.35-.27-1.03-1.06-.53-3.74-3.67,1.3-5.39-4.04-2.5-6.24-.83-3.5,2.28-5.41,9.35-5.72,2.79-3.97,6.11-7.34,9.94-10.11.64-.27,1.28-.54,1.92-.81Z"/>
    <path class="cls-19" d="M448.43,381.34c-2.6,2.75-6.07,5.96-10.54,9.03-3.86,2.65-7.53,4.56-10.66,5.94-3.53,1.38-6.31-1.89-3.74-4.99,2.39-.79,5.04-2.64,7.49-3.74,5.78-2.69,10.18-6.46,13.2-11.3l1.77.08c1.05,1.68,1.71,2.45,2.13,2.85.08.07.28.26.41.57.24.57.11,1.17-.04,1.57Z"/>
    <path class="cls-22" d="M418.49,391.32c.44-.07.59-.18,2.57.02.92.09,1.83.18,2.42-.02.4.6,1.03,1.53,1.81,2.66,1.59,2.29,1.99,2.77,2.5,3.63.63,1.05,1.42,2.66,1.93,4.94.32.69,1.04,2.45.27,3.61-.22.33-.59.61-1.32,1.17-.69.53-1.29.91-1.71,1.17-.83.68-2.86,2.54-3.39,5.53-.15.84-.15,1.6-.09,2.24-7.02,1.62-7.23,9.8-4.02,15.94l-2.22,2.77c1.09.35,1.07.77,0,1.25-.31,1.1-.73,1.07-1.25,0-.6,15.35-.31,20.94.29,21.98.07.11.51.81.7,1.83.18.95.04,1.61,0,2.11-.23,2.61,2.1,4.25,1.52,5.01-.41.55-1.73-.12-4.79-.55-1.4-.2-2.58-.27-3.43-.29-2.2-3.65-7.36-13.38-5.99-26.05.65-6.01,2.56-10.78,4.21-14.02.76-2.82,2.89-6.15,3.74-9.98,1.63-5-.28-9.35-2.64-13.71l1.39-2.51c.94-1.37,2.19-3.14,3.7-5.21,1.69-2.31,2.48-3.32,3.79-3.52Z"/>
    <path class="cls-47" d="M423.48,416.27c1.74,5.12,1.62,13.14,2.5,18.71-2.33,9.84-3.26,17.28-3.66,22.44,0,0-.81,10.45-2.7,10.26-.07,0-.3-.09-.81-.19-.54-.11-.64-.09-.73-.2-.18-.23.09-.53-.03-1.07-.05-.24-.18-.38-.23-.54-.51-1.58-.76-2.36-.86-4-.17-3.07-1.39-4.57-1.94-9.56-.02-.18-.07-2.09-.16-5.92-.13-4.95-.16-7.47,1.17-9.65.44-.73.91-1.26,1.22-1.57-.1-.8-.1-2.02-.51-3.4-.82-2.75-2.3-5.37-1.98-8.35.41-3.88,5.42-6.92,3.75-11.95,1.41-1.78,4.61,3.87,4.98,4.98Z"/>
  </g>
  <g class="cls-43">
    <polygon class="cls-51" points="119.72 575.44 21.35 545.55 176.35 507.48 342.6 540.57 119.72 575.44"/>
    <polygon class="cls-6" points="119.72 575.44 21.35 545.55 176.35 507.48 342.6 540.57 119.72 575.44"/>
  </g>
</svg>