<?xml version="1.0" encoding="UTF-8"?>
<svg id="Capa_2" data-name="Capa 2" xmlns="http://www.w3.org/2000/svg" viewBox="0 0 262.07 262.07">
  <defs>
    <style>
      .cls-1, .cls-2 {
        fill: #163961;
      }

      .cls-3 {
        fill: none;
      }

      .cls-3, .cls-2 {
        stroke: #163961;
        stroke-miterlimit: 10;
      }

      .cls-4 {
        fill: #f5f3f0;
      }

      .cls-5 {
        fill: #e5600e;
      }

      .cls-6 {
        fill: #3b2313;
      }

      .cls-7 {
        fill: #ee751b;
      }
    </style>
  </defs>
  <g>
    <path class="cls-3" d="M153.17,116.11c0-.2,0-.4,0-.59-.02.29-.03.58-.03.86,0,.88.07,1.73.21,2.55-.13-.91-.19-1.86-.19-2.82Z"/>
    <path class="cls-3" d="M121.53,160.43c-.73.17-1.42.35-2.07.54"/>
    <path class="cls-3" d="M114.68,209.93c.65-6.09,1.89-11.59,2.95-15.54"/>
    <path class="cls-4" d="M126.92,93.79c-7.27,0-13.15,7.5-13.15,16.75s5.88,16.75,13.15,16.75,13.14-7.49,13.14-16.75-5.88-16.75-13.14-16.75ZM128.75,122.24c-4.77,0-8.64-5.09-8.64-11.36s3.87-11.35,8.64-11.35,8.64,5.08,8.64,11.35-3.87,11.36-8.64,11.36Z"/>
    <path class="cls-2" d="M128.75,99.53c-4.77,0-8.64,5.08-8.64,11.35s3.87,11.36,8.64,11.36,8.64-5.09,8.64-11.36-3.87-11.35-8.64-11.35ZM133.08,110.88c-1.48,0-2.69-1.58-2.69-3.53s1.2-3.54,2.69-3.54,2.69,1.58,2.69,3.54-1.19,3.53-2.69,3.53Z"/>
    <path class="cls-4" d="M135.77,107.35c0,1.95-1.19,3.53-2.69,3.53s-2.69-1.58-2.69-3.53,1.2-3.54,2.69-3.54,2.69,1.58,2.69,3.54Z"/>
    <path class="cls-3" d="M153.17,116.11c0-.2,0-.4,0-.59-.02.29-.03.58-.03.86,0,.88.07,1.73.21,2.55-.13-.91-.19-1.86-.19-2.82Z"/>
    <path class="cls-3" d="M165.24,112.21c0,1.61-1.02,2.9-2.29,2.9s-2.3-1.29-2.3-2.9,1.03-2.9,2.3-2.9,2.29,1.29,2.29,2.9Z"/>
    <path class="cls-4" d="M172.96,116.11c0,7.98-4.43,14.46-9.9,14.46-4.78,0-8.77-4.96-9.69-11.55.78,4.53,3.5,7.87,6.75,7.87,3.85,0,6.95-4.71,6.95-10.51s-3.11-10.51-6.95-10.51-6.65,4.25-6.94,9.65c.22-7.7,4.56-13.85,9.88-13.85s9.9,6.47,9.9,14.45Z"/>
    <path class="cls-2" d="M160.12,105.87c-3.66,0-6.65,4.25-6.94,9.65,0,.2,0,.4,0,.59,0,.96.06,1.91.19,2.82,0,.03,0,.06,0,.09.78,4.53,3.5,7.87,6.75,7.87,3.85,0,6.95-4.71,6.95-10.51s-3.11-10.51-6.95-10.51ZM162.95,115.11c-1.27,0-2.3-1.29-2.3-2.9s1.03-2.9,2.3-2.9,2.29,1.29,2.29,2.9-1.02,2.9-2.29,2.9Z"/>
    <path class="cls-4" d="M165.24,112.21c0,1.61-1.02,2.9-2.29,2.9s-2.3-1.29-2.3-2.9,1.03-2.9,2.3-2.9,2.29,1.29,2.29,2.9Z"/>
    <path class="cls-6" d="M142.15,143.4c-3.15-.32-5.95-2.91-7.32-5.12-.98-1.59-1.39-3.24-1.74-4.66-.29-1.19-1-4.03-.42-4.29.38-.16.93.9,1.81,2.35,1.45,2.44,3.74,6.01,7.38,6.83,2.54.57,5.18-.32,6.5-.76.69-.23,1.31-.5,1.87-.78,2.31-1.14,3.42-2.43,3.56-2.28.34.37-5.17,9.39-11.62,8.71Z"/>
    <path class="cls-4" d="M150.21,136.97c-.56.28-1.18.55-1.87.78-1.31.44-3.95,1.34-6.5.76-3.64-.82-5.93-4.38-7.38-6.83,1.49,1.24,4.09,3.06,7.74,4.22,3.28,1.04,6.14,1.14,8,1.06Z"/>
    <g>
      <g>
        <path class="cls-7" d="M176.16,110.2c1.2,4.88,3.38,13.69-.76,23.02-3.82,8.62-10.88,12.81-13.46,14.29-8.65,4.98-17.48,4.94-23.22,4.15-2.54-.34-4.48-.83-5.53-1.1-2.13-.54-4.1-1.22-5.89-1.98-7.61-3.21-12.18-7.79-13.37-9.03-2.36-2.45-7.9-8.36-9.79-17.74-2.63-13.08,3.73-23.5,5.81-26.91,9.47-15.51,25.24-18.68,22.59-18.3-.02-.25-.05-.63-.08-1.09-.22-3.63.49-6.54,1.55-10.02,1.7-5.57,2.96-9.74,5.97-14.91,1.5-2.61,2.84-4.4,3.32-5.05,1.32-1.75,3.25-4.28,6.31-6.8,3.27-2.7,5.21-4.34,8.26-4.71,3.32-.4,5.98.87,8.03,1.84,2.61,1.23,6.33,2.99,6.31,5.62-.02,1.88-1.95,3.61-3.73,4.18-1.81.58-3.63-.13-7.29-1.54-2.61-1.02-2.26-1.19-3.21-1.38-4.23-.84-8.47,3.35-11.02,5.86-2.7,2.66-4.25,5.18-5.16,6.68-1.82,3.02-2.78,5.56-3.56,7.69-.26.7-1.3,3.58-2.07,7.53-.98,5.08-.31,5.81-.07,6.04.92.85,2.02,0,6.05.28.44.04,1.6.2,3.93.53,4.57.64,4.68.73,5.17.57.93-.31,1.38-.91,1.92-1.95l2.1.32c-.94,1.46-1.48,2.9-.97,3.93.37.72.93.6,2.91,1.83,1.56.98,2.51,1.87,4.11,3.38,4.66,4.38,8.27,10.08,8.27,10.08,1.85,2.93,4.88,7.82,6.57,14.68ZM172.97,116.11c0-7.98-4.43-14.45-9.9-14.45s-9.67,6.15-9.88,13.85c-.02.29-.03.58-.03.86,0,.88.07,1.73.21,2.55,0,.03,0,.06,0,.09.93,6.59,4.91,11.55,9.69,11.55,5.47,0,9.9-6.48,9.9-14.46ZM142.15,143.4c6.45.67,11.96-8.35,11.62-8.72-.13-.15-1.25,1.14-3.56,2.28-1.86.08-4.72-.02-8-1.06-3.66-1.16-6.25-2.98-7.74-4.22-.87-1.46-1.43-2.52-1.81-2.35-.58.26.13,3.1.42,4.29.35,1.42.76,3.07,1.74,4.66,1.37,2.21,4.17,4.8,7.32,5.12ZM140.06,110.54c0-9.25-5.88-16.75-13.14-16.75s-13.15,7.5-13.15,16.75,5.88,16.75,13.15,16.75,13.14-7.49,13.14-16.75Z"/>
        <path class="cls-7" d="M159.79,71.04c-1.11,1.1-3.22,3.2-4.54,5.26l-2.1-.32c.55-1.04,1.19-2.52,2.52-4.55,1.85-2.87,3.67-4.72,4.16-5.22,1.43-1.42,3.53-3.52,6.96-4.99,3.58-1.53,6.91-1.64,9.06-1.49,1.74.13,5.8.47,9.51,3.33,1.29,1,3.44,2.71,3.95,5.53.13.72.48,2.61-.61,3.83-1.46,1.64-4.68,1.1-6.58.15-2.05-1.03-3.27-2.89-4.58-4.9-1.34-2.03-1.08-2.34-1.84-2.9-2.58-1.93-7.3.32-9.17,1.22-.58.27-1.11.57-1.61.86-2.21,1.31-3.73,2.8-5.12,4.18Z"/>
        <path class="cls-7" d="M140.24,161.81c.83,7.09-.74,12.98-2.09,16.65l-3.05-18.83,1.81-1.49,2.07-2.41c.54,1.77,1.02,3.81,1.28,6.08Z"/>
        <path class="cls-4" d="M138.72,151.67c.09,1.35.19,2.69.28,4.03-.03.02-.04.04-.04.04l-2.07,2.41-4.12-4.82-3.22,4.02-3.78-5.27c.5-1.16,1.02-2.32,1.52-3.48,1.8.75,3.76,1.44,5.89,1.98,1.05.27,2.99.75,5.53,1.1h0Z"/>
        <polygon class="cls-1" points="138.14 178.46 138.27 179.24 134.03 189.47 132.08 194.16 132.01 194.05 124.16 181.77 131.16 159.4 129.55 157.34 132.77 153.32 136.89 158.14 135.09 159.63 138.14 178.46"/>
        <path class="cls-7" d="M132.08,194.16l1.95-4.69c2.26,4.16,4.51,8.33,6.77,12.49.04,5.31.08,10.63.12,15.94.98-.2,2.87-.43,4.93.36.99.38,2.47.95,3.32,2.51.12.21,1.21,2.27.34,3.79-1.03,1.79-4.16,1.63-6.77,1.48-1.71-.09-4.3-.43-7.34-1.72l-.46-22.02-4.36-7.34,1.42-.91.07.11Z"/>
        <path class="cls-7" d="M122.1,152.63c1.22-.79,2.66-.74,3.67-.57l3.78,5.27,1.61,2.06-7,22.37,7.84,12.28-1.42.91c-.42,1.44-3.05,9.84-11.12,13.53-1.63.75-3.23,1.19-4.78,1.44-.54,5.03-.8,7.55-.39,9.69.4,2.06.96,3.13.35,4.36-1.18,2.31-5.18,2.44-7.69,2.52-2.45.07-7.48.23-8.26-1.95-.62-1.75,1.55-4.76,4.13-5.86,2.61-1.1,4.89.06,5.85-1.37.29-.42.27-1.33.22-3.11-.04-1.56-.05-2.34-.2-3.55-.03-.15-.04-.32-.04-.52-.72-.04-1.4-.11-2.06-.16-2.29-.19-3.81-.58-5.27-1.37-2.7-1.46-4.13-3.67-4.71-4.7-2.09-3.79-1.42-7.65-.57-12.51.55-3.15,1.08-6.15,3.09-9.63,1.16-1.99,3.81-6.56,8.72-8.37,2.69-.99,5.17-1.27,5.17-1.27,3.04-.32,4.51.22,5.39-.8.75-.86.3-1.95.22-4.23-.04-1.64.11-3.71.81-6.13-2.11.6-3.75,1.29-4.93,1.87-3.09,1.49-4.47,2.3-4.47,2.3-2.45,1.42-3,2.04-4.13,1.95-.88-.07-1.02-.49-3.78-2.41-2.61-1.81-3.23-1.97-3.78-1.95-1.26.03-1.81.86-2.98,1.6-2.43,1.54-5.83,1.55-8.03.69-4.04-1.59-5.2-6.64-5.85-9.41-.4-1.74-.93-4.16-.02-7,.37-1.16,1.19-3.7,3.46-5.04,2.09-1.23,3.89-.55,4.36-1.61.46-1.03-1.39-1.82-1.83-4.47-.25-1.51-.6-3.61.69-5.39.85-1.18,2.61-2.45,4.47-2.07,1.74.37,2.63,1.99,2.87,2.41.22.4.58,1.19.68,4.93.09,3.13-.14,3.41.23,4.25.9,1.98,2.67,1.39,4.12,3.09,2.7,3.16-.82,8.17,2.11,11.14.27.28,1.01.83,2.48,1.94,1.85,1.38,2.78,2.08,3.1,2.17,2.33.68,3.22-2.09,8.37-3.78,1.28-.42,2.54-.68,3.78-1.83.75-.7.95-1.22,1.72-1.73Z"/>
      </g>
      <g>
        <polyline class="cls-3" points="138.14 178.46 138.27 179.24 134.03 189.47 132.08 194.16 132.01 194.05 124.16 181.77 131.16 159.4 129.55 157.34 132.77 153.32 136.89 158.14"/>
        <path class="cls-3" d="M138.14,178.46l-3.05-18.83,1.81-1.49,2.07-2.41c.54,1.77,1.02,3.81,1.28,6.08.83,7.09-.74,12.98-2.09,16.65Z"/>
      </g>
    </g>
    <path class="cls-7" d="M159.79,177.74c-.31.64,4.81,2.42,5.62,6.21.23,1.09.16,2.57-.57,2.98-1.16.66-3.62-1.56-3.78-1.35-.11.15,1.19.9,1.66,2.37.07.23.52,1.64-.29,2.82-.75,1.1-2.29,1.61-3.38,1.2-1.64-.61-1.91-3.14-2.47-3.05-.52.1,0,2.29-1.09,3.05-1,.69-3.19.07-4.02-1.27-.75-1.21.15-2.18-.69-4.29-.38-.96-.57-.79-1.02-1.9-.75-1.78-.37-2.52-.93-3.73-.5-1.1-1.12-1.15-2.52-2.41-.59-.53-3.16-2.84-3.96-6.08-.18-.74-.06-.68-.12-4.29-.06-4.56-.26-5.62.12-5.74.65-.21,1.88,2.6,5.45,7.63,2.27,3.21,3.17,4.03,4.41,4.25.91.15,1.25-.15,4.88-1.27,3.85-1.18,4.42-1.13,4.87-1.03,2.39.54,4.42,3.23,3.88,4.65-.04.08-.16.4-.73.77-2.14,1.42-5.09-.04-5.33.48Z"/>
  </g>
  <path class="cls-5" d="M125.05,204.51c-.25.41-8.46-2.36-15.42-9.79-6.93-7.4-8.94-15.54-7.44-17.29.2-.24,1.1-1.1,1.91-1.82,1.63-1.44,1.86-1.4,1.94-1.37.72.27.06,3.07,0,5.07-.13,4.38,1.85,7.67,3.8,10.9,5.74,9.55,15.49,13.84,15.21,14.3Z"/>
  <path class="cls-5" d="M107.92,210.06c-.19.23-3.52-1.98-6.66-5.03-2.04-1.98-6.13-6.05-5.83-9.65.06-.73.4-2.64.44-2.89.36-2.06.55-3.09.78-3.1.42-.01.33,3.07,1.52,6.73,1.29,3.96,3.48,6.75,5.03,8.73,2.66,3.39,4.88,5.03,4.72,5.22Z"/>
  <path class="cls-5" d="M123.89,180.57c-.23.67-.34,1-.47,1.06-.81.38-4.37-3.54-4.95-8.18-.1-.81-.17-2.1-.03-2.13.12-.02.28.91.7,2.09.56,1.54,1.12,3.07,2.4,4.13,1.25,1.03,2.58,1.1,2.64,1.93.02.24-.08.53-.28,1.1Z"/>
  <g>
    <path class="cls-7" d="M108.71,213.57c-.16-3.26-.05-7.72,1.05-12.81.7-3.2,1.63-5.91,2.53-8.09"/>
    <path class="cls-1" d="M108.66,213.57c-1.55-7.04-.23-14.8,3.59-20.92,0,0,.09.04.09.04-2.8,6.54-3.69,14-3.68,20.88h0Z"/>
  </g>
  <g>
    <path class="cls-7" d="M118.31,194.38c-.77,3.71-1.49,7.61-2.15,11.7-.47,2.93-.88,5.79-1.24,8.56"/>
    <path class="cls-1" d="M118.36,194.39c-1.07,5.85-2.61,14.43-3.39,20.26,0,0-.1-.01-.1-.01-.13-3.39.1-6.97.69-10.3.72-3.29,1.32-7.02,2.8-9.94h0Z"/>
  </g>
</svg>