<?xml version="1.0" encoding="UTF-8"?>
<svg id="Capa_2" data-name="Capa 2" xmlns="http://www.w3.org/2000/svg" viewBox="0 0 262.07 262.07">
  <defs>
    <style>
      .cls-1 {
        fill: #b34c18;
        stroke: #b34c18;
      }

      .cls-1, .cls-2, .cls-3, .cls-4 {
        stroke-miterlimit: 10;
      }

      .cls-2 {
        fill: #fcfaf8;
        stroke: #fcfaf8;
      }

      .cls-3, .cls-5 {
        fill: #183962;
      }

      .cls-3, .cls-4 {
        stroke: #183962;
      }

      .cls-4 {
        fill: none;
      }
    </style>
  </defs>
  <path class="cls-4" d="M93.7,126.99c4.03,11.05,13.8,15.77,16.51,17.08,7.31,3.53,14.35,3.72,19.43,3.16,2.81-.32,5.01-.87,6.33-1.21,1.3-.33,2.53-.71,3.71-1.15,9.15-3.32,14.46-9.05,15.61-10.33,2.42-2.69,7.23-8.04,8.4-16.23,1.1-7.72-1.66-13.55-4.76-20.16-3.15-6.7-6.82-14.48-14.62-18.92-.78-.45-1.6-.86-2.47-1.23-.5-.22-1-.42-1.49-.58-5.67-2.04-10.66-1.57-12.37-1.38-.75.08-1.46.19-2.16.32-.67.12-1.33.27-1.96.45-6.01,1.61-10.3,5.03-13.92,7.92-4.32,3.43-12.84,10.2-16.24,22.39-1.03,3.67-3.15,11.27,0,19.88ZM127.99,111.76h0c-.01-.26-.01-.53-.01-.78,0-1.91.31-3.74.86-5.43,1.81-5.5,6.28-9.41,11.51-9.41,6.84,0,12.38,6.64,12.38,14.83,0,8.2-5.54,14.85-12.38,14.85-2.61,0-5.03-.98-7.04-2.63-.82-.69-1.58-1.5-2.25-2.41-1.79-2.42-2.92-5.57-3.07-9.02ZM110.92,130.77c.65-.57,2.52,2.06,5.69,2.74,6.07,1.28,11.59-5.81,12.51-4.89.66.66-1.94,4.64-5.23,7.37-1.57,1.3-2.76,2.27-4.57,2.43-3.21.29-5.59-2.2-6.16-2.81-1.67-1.74-2.83-4.33-2.24-4.85ZM98.42,110.15c1.35-1.97,2.23-3.26,3.63-3.45,1.84-.26,3.42,1.46,5.79,4.1,2.82,3.16,4.85,6.55,4.51,6.82-.3.23-1.94-1.98-5.72-4.14-2.55-1.46-3.6-1.47-4.29-1.32-.53.11-.84.3-3.27,1.91-2.41,1.61-2.71,1.81-2.89,1.69-.56-.41.69-3.34,2.25-5.6Z"/>
  <path class="cls-5" d="M156.75,176.37l8.21,19.46.7,1.68c1.36,3.21,5.12,4.64,8.27,3.12l26.72-12.86c2.66-1.28,3.86-4.41,2.74-7.14l-9.68-23.66c-.83-2.03-3.2-2.94-5.18-1.97l-5.93,2.87-5.83,2.83c-1.18.92-2.8,1.73-4.73,2.29l-2.49,1.2-1.15.56-3.44,1.67-1.85.9-3.61,1.75c-2.71,1.3-3.91,4.52-2.75,7.3ZM179.86,177.3l3.5-1.23c.6-.21,1.26.11,1.47.71l1.23,3.5c.21.6-.11,1.25-.71,1.47l-3.5,1.22c-.6.22-1.25-.1-1.47-.7l-1.22-3.5c-.22-.6.1-1.26.7-1.47Z"/>
  <path class="cls-4" d="M179.16,178.77l1.22,3.5c.22.6.87.92,1.47.7l3.5-1.22c.6-.22.92-.87.71-1.47l-1.23-3.5c-.21-.6-.87-.92-1.47-.71l-3.5,1.23c-.6.21-.92.87-.7,1.47Z"/>
  <path class="cls-4" d="M179.16,178.77l1.22,3.5c.22.6.87.92,1.47.7l3.5-1.22c.6-.22.92-.87.71-1.47l-1.23-3.5c-.21-.6-.87-.92-1.47-.71l-3.5,1.23c-.6.21-.92.87-.7,1.47Z"/>
  <path class="cls-2" d="M127.98,110.98c0,.25,0,.52.01.77.04-2.68.79-5.12,2-7,1.49-2.36,3.69-3.85,6.16-3.85,4.51,0,8.16,5,8.16,11.15,0,6.16-3.65,11.15-8.16,11.15-.56,0-1.11-.08-1.63-.23h-.01c-1.28-.35-2.46-1.12-3.44-2.19.67.91,1.43,1.72,2.25,2.41,2.01,1.66,4.43,2.63,7.04,2.63,6.84,0,12.38-6.64,12.38-14.85,0-8.19-5.54-14.83-12.38-14.83-5.23,0-9.7,3.9-11.51,9.41-.55,1.69-.86,3.52-.86,5.43Z"/>
  <path class="cls-1" d="M140.35,113.59c0,4.6-2.49,8.44-5.83,9.39.53.15,1.07.23,1.63.23,4.51,0,8.16-4.99,8.16-11.15,0-6.15-3.65-11.15-8.16-11.15-2.47,0-4.67,1.49-6.16,3.85.9-.5,1.89-.78,2.93-.78,4.11,0,7.43,4.31,7.43,9.62Z"/>
  <path class="cls-3" d="M127.99,111.75h0c.15,3.46,1.28,6.61,3.07,9.03.99,1.07,2.16,1.84,3.44,2.19h.01c3.34-.94,5.83-4.78,5.83-9.39,0-5.31-3.32-9.62-7.43-9.62-1.04,0-2.03.27-2.93.78-1.21,1.87-1.95,4.32-2,7ZM129.95,108.51c0-1.26.86-2.29,1.92-2.29s1.91,1.03,1.91,2.29-.86,2.28-1.91,2.28-1.92-1.02-1.92-2.28Z"/>
  <path class="cls-2" d="M129.95,108.51c0,1.26.86,2.28,1.92,2.28s1.91-1.02,1.91-2.28-.86-2.29-1.91-2.29-1.92,1.03-1.92,2.29Z"/>
  <path class="cls-3" d="M96.17,115.75c.19.12.48-.08,2.89-1.69,2.42-1.61,2.74-1.8,3.27-1.91.69-.15,1.73-.14,4.29,1.32,3.78,2.16,5.43,4.37,5.72,4.14.34-.27-1.69-3.66-4.51-6.82-2.37-2.64-3.95-4.36-5.79-4.1-1.4.2-2.28,1.48-3.63,3.45-1.56,2.26-2.81,5.2-2.25,5.6Z"/>
  <path class="cls-3" d="M113.16,135.62c.57.6,2.95,3.09,6.16,2.81,1.81-.16,3-1.13,4.57-2.43,3.29-2.73,5.89-6.71,5.23-7.37-.92-.92-6.44,6.17-12.51,4.89-3.17-.68-5.04-3.31-5.69-2.74-.59.52.57,3.1,2.24,4.85Z"/>
  <path class="cls-5" d="M107.09,37.37c.02,1.72,2.46,3.51,4.48,4.1,2.03.6,3.78.03,6.15-.75,2.24-.73,3.95-1.7,5.04-2.42,3.17,2.25,9.22,7.18,13.43,15.67,5.05,10.17,4.56,19.57,4.14,23.45.49.16.99.36,1.49.58.87.37,1.69.78,2.47,1.23.39-10.09-.8-25.18-9.77-38.47-2.94-4.34-7.15-12.47-13.5-10.85-2.91.73-14.01,2.99-13.95,7.47Z"/>
  <path class="cls-5" d="M92.04,62.18c.59,1.64,3.97,2.28,6.36,1.68,1.67-.43,2.81-1.45,3.99-2.53,1.3-1.21,2.17-2.39,2.71-3.21,2.08.42,4.65,1.21,7.28,2.76,8.22,4.86,10.82,13.42,11.48,15.93.64-.18,1.29-.33,1.96-.45-.78-3.66-3.43-13.69-12.38-19.58-2.38-1.57-6.86-4.51-12.12-3.39-5.5,1.16-10.15,6.41-9.29,8.79Z"/>
  <path class="cls-4" d="M169.57,163.54c0,.21,0,.43-.01.65"/>
  <line class="cls-4" x1="148.42" y1="167.31" x2="148.41" y2="167.31"/>
  <path class="cls-4" d="M148.42,167.3c1.27-.66,3.74-1.71,7.02-1.78,3.64-.08,6.39,1.12,7.67,1.79"/>
  <path class="cls-4" d="M139.67,189.67c1.25,1.48,2.81,2.89,4.7,4.13,1.96,1.27,3.96,2.13,5.88,2.66"/>
  <path class="cls-4" d="M134.16,176.38c.05.73.45,5.47,3.39,10.34"/>
  <path class="cls-4" d="M155.76,197.31c4.91.14,8.63-1.25,9.2-1.48"/>
  <path class="cls-4" d="M169.57,163.54c-.08.02-.16.03-.24.04"/>
  <path class="cls-5" d="M164.96,166.42l3.44-1.67c-.23-.83-.48-2.14-.36-3.74.12-1.66.6-2.94.96-3.74-.71-.72-1.64-.26-2.5-.59-.33.18-.61.37-.84.59-2.82,2.55-.94,8.42-.7,9.14Z"/>
  <path class="cls-3" d="M113.94,171.68l1.33,4.48c1.39-1.47,2.4-.76,4.73-1.96,4.82-2.49,5.72-8.31,7.03-7.97-.18-1.1-.29-2.34-.26-3.69.05-3.83,1.12-6.93,2.09-9.02-.64,1.33-1.41,2.82-2.35,4.41-1.13,1.95-2.4,4.13-4.29,6.45-1.61,1.96-4.24,4.73-8.28,7.31Z"/>
  <path class="cls-4" d="M100.59,182.75c1.5-.08,2.57-1.09,2.63-.99.1.14-3.03,1.71-2.94,3.5.05,1.25,1.69,2.59,2.94,2.38,2.04-.35,2.7-4.76,3.35-4.62.58.12-.39,3.42,1.12,4.62,1.24.96,3.87.36,4.9-1.12.59-.86.32-1.5.42-3.37.07-1.12.29-4.91,2.25-7l-1.33-4.48c-.07.04-.14.1-.22.14-1.95-2.26-3.37-2.64-4.33-2.51-1.2.14-1.74,1.06-2.81.83-1.21-.26-1.14-1.6-2.37-2.24-1.62-.84-4.6.05-5.75,2.24-.56,1.07-.88,2.83,0,3.93,1.17,1.46,3.87.94,3.91,1.39.05.5-3.17.44-4.46,2.47-.68,1.06-.87,2.77,0,3.84.87,1.05,2.39,1.01,2.68.99Z"/>
  <path class="cls-4" d="M126.75,162.53c-.02,1.36.09,2.6.26,3.69.86.22.2,2.62,1.68,5.46,1,1.91,2.72,3.55,4.48,4.33,5.11,2.27,12.9-1.77,14.83-7.14.18-.49.31-1.01.41-1.57h0c.42-2.29.19-4.97-.41-7.1-.76-2.74-2.09-4.65-1.26-5.59.65-.73,1.75.03,4.2-.71.87-.25,1.09-.46,1.92-.9.39-.21.61-.31,1.02-.49,2.14-1.01,2.68-1.57,3.78-1.82.94-.22,1.66-.05,2.97.25,1.73.39,3.43.78,4.32,2.13.92,1.39.1,2.55,1.11,3.36.14.11.3.2.44.25.86.33,1.79-.13,2.5.59.39.39.49.9.55,2.94.03.9.04,2.03.01,3.33.88-.13,1.7-.32,2.48-.55,1.93-.56,3.54-1.37,4.73-2.29,1.49-1.15,2.32-2.48,2.31-3.72-.01-1.56-1.36-3.28-1.54-3.5-.54-.67-1.46-1.58-3.64-2.57-2.69-1.21-3.76-.93-6.02-1.63-.5-.15-1.23-.53-2.71-1.22-2.19-1.02-2.8-1.38-4.3-2.01-1.61-.67-2.42-1-2.93-1.05-1.66-.18-2.75.61-5.75,2.45-5.34,3.29-6.21,3.48-7,3.46-2.12-.03-3.79-1.39-4.86-2.47-.32.44-2.08,2.86-5.36,3.36-2.43.36-4.31-.54-4.94-.89-.29.65-.61,1.36-.99,2.15-.07.14-.14.29-.22.44-.98,2.09-2.04,5.2-2.09,9.02Z"/>
  <path class="cls-3" d="M152.91,205.56c1.79,2.46,4.01,3.68,6.81,5.23,2.06,1.14,3,1.29,3.39,1.35,2.15.29,3.31-.59,4.08.14.7.66.59,2.2,0,3.21-.88,1.5-2.38,1.12-3.08,2.38-.76,1.38-.1,3.84,1.49,4.76,1.91,1.11,4.3-.49,5.23-1.12,3.61-2.41,4.2-6.85,4.34-7.84.27-2.05.76-5.65-1.26-7.41-2.45-2.14-5.99.6-13.03-1.26-1.43-.38-2.65-.86-3.63-1.96-1.77-1.97-1.6-4.7-1.49-5.72-1.72-.05-3.59-.29-5.52-.84-.04,1.71.11,5.59,2.66,9.09Z"/>
  <path class="cls-3" d="M113.44,210.46c.35,3.95,5.98,6.12,10.08,7.7,2.97,1.15,4.48,1.71,5.7.98,1.53-.92,1.52-3.19,1.58-11.75.05-8.12.09-9.73,1.07-11.62,1.74-3.39,5.16-5.13,7.8-6.09-.82-.96-1.52-1.96-2.12-2.95-1.43.69-3.43,1.75-5.68,3.3-2.54,1.74-3.8,2.61-4.71,4.06-1.36,2.15-1.44,4.4-1.55,7.57-.14,4.23.6,6.39-.32,6.85-.61.31-1.25-.46-4.57-2.24-2.81-1.49-3.34-1.48-3.64-1.44-1.94.3-3.86,3.14-3.64,5.64Z"/>
  <line class="cls-4" x1="139.67" y1="144.87" x2="140.35" y2="148.45"/>
  <line class="cls-4" x1="129.63" y1="147.22" x2="130.05" y2="150.92"/>
  <path class="cls-5" d="M176.77,160.7c2.4-1.16,4.79-2.32,7.19-3.48-.37-.85-1.75-3.71-5.02-5.29-2.09-1.01-4.02-1.05-5.02-1,2.18.99,3.1,1.9,3.64,2.57.18.22,1.52,1.94,1.54,3.5.01,1.24-.82,2.57-2.31,3.72Z"/>
</svg>