<?xml version="1.0" encoding="UTF-8"?>
<svg id="Capa_2" data-name="Capa 2" xmlns="http://www.w3.org/2000/svg" viewBox="0 0 33.34 33.34">
  <defs>
    <style>
      .cls-1 {
        fill: #f5f3f0;
      }

      .cls-2 {
        fill: #ee751b;
      }
    </style>
  </defs>
  <circle class="cls-1" cx="16.67" cy="16.67" r="11.89"/>
  <g>
    <path class="cls-2" d="M13.39,9.74c.07-.47.62-.97,1.09-1.02h5.08c.65.11,1.15.69,1.09,1.36.1-.01.15-.11.24-.17.95-.58,2.04.48,1.42,1.49-.09.15-.67.84-.78.92-.26.19-.59-.09-.36-.43.21-.31.79-.73.78-1.11-.01-.47-.57-.61-.9-.31-.08.07-.39.46-.4.54v2.05c.98.04,1.39,1.2.68,1.87.5.33.7.92.39,1.46-.07.13-.5.57-.49.64,0,.02.17.09.2.12.4.32.52.86.3,1.32-.07.15-.49.65-.63.77-.12.1-.29.21-.45.21.03.52,0,1-.39,1.38-.2.19-.48.32-.76.34-.9.08-1.91-.06-2.82,0-.24-.09-.25-.4-.03-.51h2.71c.67-.09.81-.61.76-1.2-.48-.12-.79-.57-.78-1.06s.38-.75.65-1.1c-.42-.25-.66-.59-.62-1.1.04-.46.4-.69.65-1.04-.77-.48-.65-1.52.1-1.95v-3.22c-.06-.44-.35-.69-.79-.74-1.46-.15-3.15.11-4.63,0-.12.03-.27.05-.38.11-.27.13-.39.44-.41.72v6.96c.27.19.51.42.73.67.64.73,1.11,1.69,1.27,2.65.05.29.2.96-.32.8-.22-.07-.19-.55-.23-.77-.25-1.24-.94-2.31-1.95-3.07-.07-.86.03-1.75-.02-2.61-.01-.18-.04-.43-.08-.6-.12-.46-.47-.74-.96-.68-.05.77.07,1.62,0,2.38-.06.72-.41,1.55-.48,2.27-.12,1.24.55,2.25.74,3.43l-1.29,2.6c-.18.32-.61.18-.52-.19l1.25-2.51c-.27-1.08-.81-2.1-.74-3.24.06-.82.44-1.73.52-2.53s-.11-1.83,0-2.58c.02-.12.08-.16.21-.18.44-.07,1,.02,1.34.32v-3.45ZM20.17,14.57c.49.51,1.29-.35.85-.8s-1.11.1-.95.62c0,.01.1.17.1.18ZM21.15,15.47c-.26-.23-.57-.09-.78.12-.06.06-.32.37-.37.44-.19.28-.05.66.27.75.37.11.59-.18.79-.44.02-.02,0-.06.01-.07.03-.04.13-.1.16-.15.13-.22.11-.49-.09-.66ZM20.76,18.77c.14-.12.51-.5.54-.68.09-.53-.52-.81-.91-.42-.06.06-.07.13-.11.17-.07.08-.25.23-.31.32-.18.28-.03.71.31.75.25.04.31,0,.48-.15Z"/>
    <path class="cls-2" d="M18.11,12.5c-.18.17-.41-.03-.6-.08-1.43-.36-2.64.94-2.19,2.35.01.04.06.04.07.05,0,.02-.02.06,0,.11.69,1.44,2.84,1.34,3.34-.18.08-.24.05-.81.4-.75.29.05.24.46.2.68-.19.92-1.1,1.73-2.04,1.81-.74.06-1.23-.12-1.81-.56-.03-.03-.05-.08-.06-.08-.01,0-.06.03-.06.02-.01-.01-.03-.08-.09-.15-1.41-1.72-.14-4.1,2.05-3.89.17.02.71.15.81.29.08.11.07.29-.03.38Z"/>
    <path class="cls-2" d="M20.5,23.75c.19.05.23.48-.06.52l-6.4-.02c-.2-.13-.18-.42.05-.5h2.25c.11-.19.4-.95.56-1.02.59-.07,1.12-.04,1.59-.45.14-.13.36-.51.47-.57.13-.07.33-.04.39.1.08.2-.06.37-.16.51-.47.65-1.19.92-1.98.92l-.23.51h3.55Z"/>
    <path class="cls-2" d="M19.02,12.74c.1.08.1.31.02.41l-1.87,1.85c-.05.03-.16.06-.22.05-.18-.04-.74-.78-.95-.9-.09-.23.05-.47.31-.41.17.04.63.65.72.64l1.64-1.63c.09-.07.26-.07.35,0Z"/>
    <path class="cls-2" d="M16.13,9.76h1.74c.25.09.25.42,0,.51h-1.72c-.24-.09-.25-.4-.03-.51Z"/>
    <path class="cls-2" d="M21.32,23.75c.46-.14.59.45.22.51-.46.07-.46-.44-.22-.51Z"/>
  </g>
</svg>