<?xml version="1.0" encoding="UTF-8"?>
<svg id="Capa_2" data-name="Capa 2" xmlns="http://www.w3.org/2000/svg" viewBox="0 0 33.34 33.34">
  <defs>
    <style>
      .cls-1 {
        fill: #f5f3f0;
      }

      .cls-2 {
        fill: #ee751b;
      }
    </style>
  </defs>
  <circle class="cls-1" cx="16.67" cy="16.67" r="11.89"/>
  <g>
    <path class="cls-2" d="M11.72,21.68h10.49s.09-.07.09.02v.64l-11.15-.04-.12-.14c-.07-3.6,0-7.21-.03-10.82.03-.26.29-.4.53-.3.04.02.19.2.19.23v10.41Z"/>
    <path class="cls-2" d="M22.34,11.58l-.72,2.23c-.06.05-.44-.4-.51-.45l-2.86,2.88c-.13.07-.27.11-.4,0-.47-.46-.91-.96-1.36-1.44-.04-.05-.15-.17-.2-.16l-3.98,3.24c-.07-.1-.48-.51-.43-.6,0-.01.19-.12.24-.16,1.17-.99,2.35-2,3.56-2.95.24-.19.59-.58.89-.32l1.49,1.57,2.54-2.53s.01-.05,0-.08c-.04-.08-.53-.46-.47-.53l2.23-.72Z"/>
    <path class="cls-2" d="M22,14.04l.04.21v6.53c-.03.13-.08.19-.21.21-.41.06-.97-.04-1.39,0l-.11-.12c-.06-1.72-.02-3.45-.02-5.18.5-.47.94-1.02,1.44-1.49.03-.03.22-.19.25-.16Z"/>
    <path class="cls-2" d="M16.32,15.93c.06,0,.74.69.81.81v4.08c-.02.08-.09.16-.17.17-.16.03-1.2.03-1.36,0-.09-.02-.17-.11-.17-.2v-4.08s.04-.08.04-.08l.86-.69Z"/>
    <path class="cls-2" d="M19.58,16.46v4.4s-.09.1-.11.11c-.09.04-1.22.04-1.38.02-.08,0-.21-.04-.21-.13v-3.38c.11.04.27.34.38.29l1.32-1.31Z"/>
    <path class="cls-2" d="M14.71,17.29v3.53c0,.09-.16.16-.25.17-.27.03-.98.03-1.25,0-.2-.02-.23-.1-.25-.28-.06-.66.04-1.41,0-2.07l.05-.07c.54-.34,1.02-.88,1.54-1.22.05-.03.09-.07.15-.06Z"/>
  </g>
</svg>