<?xml version="1.0" encoding="UTF-8"?>
<svg id="Capa_2" data-name="Capa 2" xmlns="http://www.w3.org/2000/svg" viewBox="0 0 33.34 33.34">
  <defs>
    <style>
      .cls-1 {
        fill: #6f6f6e;
      }

      .cls-2 {
        fill: #eef3fb;
      }
    </style>
  </defs>
  <circle class="cls-2" cx="16.67" cy="16.67" r="11.89"/>
  <g>
    <path class="cls-1" d="M14.78,10.7c.01-.07.14-.14.2-.15.16-.02.99.03,1.03,0-.04-.61.45-1.17,1.04-1.28.74-.14,1.39.32,1.55,1.04.02.08,0,.16.04.23.07.05.84-.01,1.01.01.05,0,.2.11.2.15v.72s.04.04.04.04h2.07c.06,0,.17.12.18.19.04,3.08,0,6.18.02,9.26l-.03.13-2.48,2.24h-3.32c-1.1.94-2.66,1.09-3.86.24-1.52-1.08-1.74-3.32-.42-4.65.08-.09.41-.32.43-.4v-6.73c-.02-.08.1-.28.17-.28h2.09s.04-.04.04-.04c0-.18-.03-.58,0-.72ZM19.34,11.07h-1.11s-.13-.11-.14-.15c-.05-.2.07-.35-.03-.62-.28-.78-1.46-.64-1.53.17-.01.15.11.6-.15.6h-1.09v1.15h4.05v-1.15ZM21.62,11.98h-1.73s-.04.04-.04.04v.56c0,.13-.27.17-.36.18-1.42.1-2.97-.08-4.4,0-.07.02-.31-.1-.31-.15v-.59s-.04-.04-.04-.04h-1.73v6.25c1.6-.72,3.5.11,4.1,1.74.35.95.22,2-.37,2.82h2.87v-1.77h2.01v-9.04ZM16.06,22.8c1.33-1.35.72-3.68-1.09-4.21-2.17-.64-4.06,1.66-2.96,3.66.82,1.49,2.86,1.77,4.05.55Z"/>
    <path class="cls-1" d="M15.58,20.93c-.05.05-.16.11-.22.17-.37.36-.73.72-1.1,1.07-.22.15-.38-.02-.55-.15-.33-.25-.63-.53-.97-.77-.19-.19-.04-.54.24-.46.38.25.72.57,1.09.84.21-.24.46-.43.68-.65s.45-.5.71-.7c.03-.03.1-.09.13-.1.25-.13.49.13.33.39-.04.06-.28.3-.34.37Z"/>
    <path class="cls-1" d="M17.3,10.11c.49-.03.55.74.05.77s-.55-.74-.05-.77Z"/>
  </g>
</svg>