<?xml version="1.0" encoding="UTF-8"?>
<svg id="Capa_2" data-name="Capa 2" xmlns="http://www.w3.org/2000/svg" viewBox="0 0 33.34 33.34">
  <defs>
    <style>
      .cls-1 {
        fill: #6f6f6e;
      }

      .cls-2 {
        fill: #eef3fb;
      }
    </style>
  </defs>
  <circle class="cls-2" cx="16.67" cy="16.67" r="11.89"/>
  <g>
    <path class="cls-1" d="M11.99,11.29c-.12.02-.25.16-.28.28v11.05c0,.21.17.38.38.39h8.13s.06.01.09.03c.12.1.23.36.38.46-.14.14-.36.13-.54.17h-8.05c-.6-.04-.99-.43-1.05-1.02v-10.98c.03-.52.42-.97.95-1.02.55-.05,1.17.04,1.73,0,.16-.28.38-.45.71-.48.18-.02.55.04.7,0,.04-.01.22-.21.3-.26.49-.32,1.05-.26,1.5.09.05.04.14.16.18.17.15.04.52-.01.7,0,.3.03.58.2.71.48.55.03,1.15-.04,1.69,0,.45.03,1,.44,1,.92v5.67c-.06.02-.04-.01-.06-.03-.1-.11-.19-.29-.29-.42s-.22-.24-.31-.37v-4.77c.01-.12-.18-.34-.29-.34h-1.68v.95c0,.2-.4.48-.59.47-1.2-.06-2.49.08-3.69,0-.23-.02-.42-.09-.55-.29-.02-.03-.09-.19-.09-.21v-.92h-1.68ZM16.03,10.34c-.38.05-.41.41-.65.46-.27.06-.65-.03-.92,0-.08.01-.13.05-.14.14-.03.2-.02.72,0,.94.01.16.06.18.21.19,1.03.09,2.17-.07,3.21,0,.15,0,.2-.08.2-.22,0-.23-.02-.52-.02-.75,0-.1.06-.2-.06-.27-.13-.07-.78.01-1-.03-.18-.04-.19-.17-.3-.28-.15-.15-.33-.21-.54-.18Z"/>
    <path class="cls-1" d="M20.35,22.18c-.11-.13-.35-.4-.42-.53-.03-.07-.11-.27-.02-.28l-.25-.3c-.19.06-.38.16-.59.22-2.85.82-4.68-2.91-2.39-4.66,2.41-1.84,5.55,1.12,3.81,3.65-.04.06-.21.23-.19.28,0,.02.21.27.23.28.04.02.11.02.16.04.12.05.29.28.39.39.34.41.82.96,1.11,1.39.05.08.1.17.12.26.1.55-.55.89-.96.48-.32-.32-.69-.86-.98-1.23ZM19.58,20.13c.93-.85.79-2.38-.29-3.02-1.24-.73-2.77.08-2.87,1.51-.11,1.7,1.91,2.66,3.16,1.51Z"/>
    <path class="cls-1" d="M16.03,10.66c.55-.1.66.66.21.77-.57.14-.68-.68-.21-.77Z"/>
  </g>
</svg>